# xmcd
#
# Track frame offsets:
#	150
#	10060
#	21325
#	32295
#	43043
#	60320
#	76943
#	92450
#	109968
#	125303
#	140400
#	155435
#	169235
#	179420
#	193358
#	204288
#
# Disc length: 2889
#
# Revision: 2
# Processed by: cddbd v1.5.1PL0 Copyright (c) Steve Scherf et al.
# Submitted via: audiograbber 1.81.02
# Normalized: r1:DSETVAR1,TDELIM( - )
#
DISCID=c90b4710
DTITLE=Various Artist - Guitar Blues
DYEAR=1994
DGENRE=Blues
TTITLE0=John Mayall and The Bluesbreaker - I'm Your Witchdoctor
TTITLE1=Eric Clapton - Snake Drive
TTITLE2=The Yardbirds - Boom Boom
TTITLE3=Jeff Beck and All Stars - Chuckies
TTITLE4=Albert Lee - Crosstown Link
TTITLE5=Dave Kelly - Maried Woman Blues
TTITLE6=Jimmy Page - Down In The Boots
TTITLE7=Savoy Brown - Cold Blooded Woman
TTITLE8=Climax Blues Band - Berlin Blues
TTITLE9=Steamhammer - Junior's Walling
TTITLE10=Willie Dixon - Pain In My Heart
TTITLE11=Slim Harpo - I'm A King Bee
TTITLE12=John Lee Hocker - Dimples
TTITLE13=Elmore James - Dust My Broom
TTITLE14=Howlin' Wolf - Little Red Rooster
TTITLE15=Jimmy Reed - Honest I Do
EXTD=
EXTT0=
EXTT1=
EXTT2=
EXTT3=
EXTT4=
EXTT5=
EXTT6=
EXTT7=
EXTT8=
EXTT9=
EXTT10=
EXTT11=
EXTT12=
EXTT13=
EXTT14=
EXTT15=
PLAYORDER=
